<?xml version="1.0" encoding="utf-8"?>
<!-- Generator: Adobe Illustrator 17.1.0, SVG Export Plug-In . SVG Version: 6.00 Build 0)  -->
<!DOCTYPE svg PUBLIC "-//W3C//DTD SVG 1.1//EN" "http://www.w3.org/Graphics/SVG/1.1/DTD/svg11.dtd">
<svg version="1.1" id="Layer_1" xmlns="http://www.w3.org/2000/svg" xmlns:xlink="http://www.w3.org/1999/xlink" x="0px" y="0px"
	 viewBox="0 0 64 64" enable-background="new 0 0 64 64" xml:space="preserve">
<polyline fill="#FFFFFF" stroke="#010101" stroke-width="3" stroke-miterlimit="10" points="134.8,32.1 134.8,58.5 91.7,58.5 
	91.7,6.7 123.7,6.7 "/>
<polyline fill="none" stroke="#010101" stroke-width="4" stroke-miterlimit="10" points="100.9,42.7 137.8,5.8 143.8,11.9 
	106.9,48.8 "/>
<rect x="-160.4" y="7.5" fill="#FFFFFF" stroke="#000000" stroke-width="3" stroke-miterlimit="10" width="48.5" height="48.5"/>
<rect x="-155.1" y="12.6" fill="#FFFFFF" stroke="#000000" stroke-width="3" stroke-miterlimit="10" width="16" height="37.8"/>
<rect x="-133.7" y="12.8" fill="#FFFFFF" stroke="#000000" stroke-width="3" stroke-miterlimit="10" width="16.2" height="16.2"/>
<rect x="-133.6" y="34.2" fill="#FFFFFF" stroke="#000000" stroke-width="3" stroke-miterlimit="10" width="16.1" height="16.1"/>
<rect x="-79" y="17.1" transform="matrix(0.7071 -0.7071 0.7071 0.7071 -37.8263 -27.2374)" fill="#FFFFFF" stroke="#000000" stroke-width="3" stroke-miterlimit="10" width="54.3" height="29.9"/>
<rect x="-59.8" y="20.2" transform="matrix(0.7071 -0.7071 0.7071 0.7071 -37.6007 -27.1928)" fill="none" width="16.4" height="23.1"/>
<text transform="matrix(0.7071 -0.7071 0.7071 0.7071 -51.5255 43.4734)" font-family="'MyriadPro-Bold'" font-size="28">$</text>
<polygon fill="none" stroke="#010101" stroke-width="4" stroke-miterlimit="10" points="98.8,50.5 100.5,44.9 104.6,49.1 "/>
<line fill="none" stroke="#010101" stroke-width="4" stroke-miterlimit="10" x1="133.7" y1="10.4" x2="139.2" y2="15.9"/>
<g>
	<path fill="#FFFFFF" stroke="#010101" stroke-width="3" stroke-miterlimit="10" d="M-119.2,125.1c-1.2-4.7,1.6-9.6,6.4-10.8
		l-2.3-8.9c-1.5,0.4-3,0.4-4.6,0c-4.7-1.3-7.5-6.2-6.2-11l-8.8-2.4c-0.4,1.5-1.2,2.9-2.3,4c-3.5,3.4-9.1,3.4-12.6-0.1l-6.5,6.4
		c1.1,1.1,1.9,2.4,2.3,4c1.2,4.7-1.6,9.6-6.4,10.8l2.3,8.9c1.5-0.4,3-0.4,4.6,0c4.7,1.3,7.5,6.2,6.2,10.9l8.8,2.4
		c0.4-1.5,1.2-2.8,2.3-3.9c3.5-3.4,9.1-3.4,12.5,0.1l6.5-6.4C-118,128-118.8,126.6-119.2,125.1z M-139.1,124.7
		c-5-1.4-8-6.6-6.6-11.6c1.4-5,6.6-8,11.6-6.6c5,1.4,8,6.6,6.6,11.6C-128.8,123.2-134,126.1-139.1,124.7z"/>
</g>
<rect x="-76.3" y="91.3" fill="#FFFFFF" stroke="#010101" stroke-width="3" stroke-miterlimit="10" width="27.8" height="27.8"/>
<polygon fill="#010101" points="-69.2,96.5 -54.5,105.1 -69.2,113.6 "/>
<g>
	<rect x="-55.5" y="109.5" fill="#FFFFFF" stroke="#010101" stroke-width="3" stroke-miterlimit="10" width="27.8" height="27.8"/>
	<path id="picture-icon_1_" fill="#010101" d="M-51.6,118.3c0-1.5,1.2-2.8,2.8-2.8c1.5,0,2.8,1.2,2.8,2.8c0,1.5-1.2,2.8-2.8,2.8
		C-50.4,121.1-51.6,119.8-51.6,118.3z M-38.4,118.4l-4.6,6.5l-2.5-2.6l-7,8h21.9L-38.4,118.4z"/>
</g>
<rect x="136.3" y="8.5" transform="matrix(0.7071 -0.7071 0.7071 0.7071 32.9583 101.3184)" fill="#FFFFFF" width="4.9" height="4.7"/>
<ellipse transform="matrix(0.7071 0.7071 -0.7071 0.7071 7.3178 45.8332)" fill="none" stroke="#000000" stroke-width="3" stroke-miterlimit="10" cx="-51.7" cy="31.8" rx="14.3" ry="9.7"/>
<g>
	<path id="key-3-icon" fill="none" stroke="#000000" stroke-width="3" stroke-miterlimit="10" d="M8.1,38.9 M33.3,31.2l-4.1,4.2
		h-5.7l0,5.7l-6,0v5.3H4.1v-9.1l19.1-18.8 M27.5,31.5 M19.5,37.2 M13.5,42.5 M45.7,34.4 M44.8,44.1 M44.9,52 M38.7,53.7 M49,28.5
		l0.6,7.2L46,40l4.3,3.7l-3.9,4.5l4,3.5l-8.6,9.9l-6.9-5.9l-1.7-24.4"/>
	<line fill="#FFFFFF" x1="22.2" y1="21.9" x2="31.2" y2="31"/>
	<polyline fill="#FFFFFF" points="29.5,30 31.2,31 28.4,33.8 21.8,33.8 21.8,39.4 15.9,39.6 15.9,44.8 5.8,44.8 5.8,38 22.1,22 	"/>
	<polyline fill="#FFFFFF" points="46.7,31.6 48.6,31 48.8,35 44.4,39.9 48.5,43.6 44.7,48.2 48.6,51.6 41.8,59.2 36.5,54.9 
		34.8,32.8 	"/>
</g>
<circle fill="#FFFFFF" stroke="#000000" stroke-width="3" stroke-miterlimit="10" cx="38.4" cy="18.1" r="14.9"/>
<circle fill="#FFFFFF" stroke="#000000" stroke-width="3" stroke-miterlimit="10" cx="42.7" cy="13.3" r="2.6"/>
</svg>
