<?xml version="1.0" encoding="utf-8"?>
<!-- Generator: Adobe Illustrator 17.1.0, SVG Export Plug-In . SVG Version: 6.00 Build 0)  -->
<!DOCTYPE svg PUBLIC "-//W3C//DTD SVG 1.1//EN" "http://www.w3.org/Graphics/SVG/1.1/DTD/svg11.dtd">
<svg version="1.1" id="Layer_1" xmlns="http://www.w3.org/2000/svg" xmlns:xlink="http://www.w3.org/1999/xlink" x="0px" y="0px"
	 viewBox="0 0 64 64" enable-background="new 0 0 64 64" xml:space="preserve">
<polyline fill="#FFFFFF" stroke="#010101" stroke-width="3" stroke-miterlimit="10" points="50.8,32.1 50.8,58.5 7.7,58.5 7.7,6.7 
	39.7,6.7 "/>
<polyline fill="none" stroke="#010101" stroke-width="4" stroke-miterlimit="10" points="16.9,42.7 53.8,5.8 59.8,11.9 22.9,48.8 
	"/>
<rect x="-244.4" y="7.5" fill="#FFFFFF" stroke="#000000" stroke-width="3" stroke-miterlimit="10" width="48.5" height="48.5"/>
<rect x="-239.1" y="12.6" fill="#FFFFFF" stroke="#000000" stroke-width="3" stroke-miterlimit="10" width="16" height="37.8"/>
<rect x="-217.7" y="12.8" fill="#FFFFFF" stroke="#000000" stroke-width="3" stroke-miterlimit="10" width="16.2" height="16.2"/>
<rect x="-217.6" y="34.2" fill="#FFFFFF" stroke="#000000" stroke-width="3" stroke-miterlimit="10" width="16.1" height="16.1"/>
<rect x="-163.3" y="18.7" transform="matrix(0.7071 -0.7071 0.7071 0.7071 -62.274 -87.0094)" fill="#FFFFFF" stroke="#000000" stroke-width="3" stroke-miterlimit="10" width="54.3" height="26"/>
<ellipse transform="matrix(0.7071 -0.7071 0.7071 0.7071 -62.3591 -87.0042)" fill="none" stroke="#000000" stroke-width="3" stroke-miterlimit="10" cx="-136.2" cy="31.8" rx="7.1" ry="9.7"/>
<rect x="-137.3" y="22.1" transform="matrix(0.7071 -0.7071 0.7071 0.7071 -61.1333 -82.3388)" fill="none" width="14.7" height="21"/>
<text transform="matrix(0.7071 -0.7071 0.7071 0.7071 -136.0568 36.9428)" font-family="'MyriadPro-Bold'" font-size="13">$</text>
<path id="key-3-icon" fill="#FFFFFF" stroke="#010101" stroke-miterlimit="10" d="M-54.9,38.1h-5.2l0,5.1l-5.4,0v4.8h-12.1v-8.3
	l17.3-17.1c0.5,1.1,1.1,2.2,1.8,3.2l-15.5,15.4v3.3h4.9v-4.8l5.4,0l0-5.1h7.3l3.4-3.4c1.1,0.7,2.2,1.2,3.5,1.6L-54.9,38.1z
	 M-39.9,16.4c-1.3,1.3-3.4,1.3-4.7,0c-1.3-1.3-1.3-3.4,0-4.7c1.3-1.3,3.4-1.3,4.7,0C-38.6,13-38.6,15.1-39.9,16.4z M-45.3,3.1
	c-7.7,0-14,6.3-14,14s6.3,14,14,14s14-6.3,14-14S-37.6,3.1-45.3,3.1z M-36.3,38.4l-3.4,3.9l3.9,3.4l-3.5,4.1l3.7,3.2l-7.8,9
	l-6.2-5.4l-1.7-24.1c1.2,0.4,2.3,0.6,3.5,0.8l1.6,21.6l2.5,2.2l3.2-3.7l-3.7-3.2l3.5-4.1l-3.9-3.4l4.7-5.4l-0.4-4.8
	c1.2-0.4,2.4-0.9,3.5-1.5L-36.3,38.4z"/>
<polygon fill="none" stroke="#010101" stroke-width="4" stroke-miterlimit="10" points="14.8,50.5 16.5,44.9 20.6,49.1 "/>
<line fill="none" stroke="#010101" stroke-width="4" stroke-miterlimit="10" x1="49.7" y1="10.4" x2="55.2" y2="15.9"/>
<g>
	<path fill="none" stroke="#010101" stroke-width="3" stroke-miterlimit="10" d="M-203.2,125.1c-1.2-4.7,1.6-9.6,6.4-10.8l-2.3-8.9
		c-1.5,0.4-3,0.4-4.6,0c-4.7-1.3-7.5-6.2-6.2-11l-8.8-2.4c-0.4,1.5-1.2,2.9-2.3,4c-3.5,3.4-9.1,3.4-12.6-0.1l-6.5,6.4
		c1.1,1.1,1.9,2.4,2.3,4c1.2,4.7-1.6,9.6-6.4,10.8l2.3,8.9c1.5-0.4,3-0.4,4.6,0c4.7,1.3,7.5,6.2,6.2,10.9l8.8,2.4
		c0.4-1.5,1.2-2.8,2.3-3.9c3.5-3.4,9.1-3.4,12.5,0.1l6.5-6.4C-202,128-202.8,126.6-203.2,125.1z M-223.1,124.7
		c-5-1.4-8-6.6-6.6-11.6c1.4-5,6.6-8,11.6-6.6c5,1.4,8,6.6,6.6,11.6C-212.8,123.2-218,126.1-223.1,124.7z"/>
</g>
<rect x="-160.3" y="91.3" fill="#FFFFFF" stroke="#010101" stroke-width="3" stroke-miterlimit="10" width="27.8" height="27.8"/>
<polygon fill="#010101" points="-153.2,96.5 -138.5,105.1 -153.2,113.6 "/>
<g>
	<rect x="-139.5" y="109.5" fill="#FFFFFF" stroke="#010101" stroke-width="3" stroke-miterlimit="10" width="27.8" height="27.8"/>
	<path id="picture-icon_1_" fill="#010101" d="M-135.6,118.3c0-1.5,1.2-2.8,2.8-2.8c1.5,0,2.8,1.2,2.8,2.8c0,1.5-1.2,2.8-2.8,2.8
		C-134.4,121.1-135.6,119.8-135.6,118.3z M-122.4,118.4l-4.6,6.5l-2.5-2.6l-7,8h21.9L-122.4,118.4z"/>
</g>
<rect x="52.3" y="8.5" transform="matrix(0.7071 -0.7071 0.7071 0.7071 8.3553 41.9214)" fill="#FFFFFF" width="4.9" height="4.7"/>
</svg>
