<?xml version="1.0" encoding="utf-8"?>
<!-- Generator: Adobe Illustrator 17.1.0, SVG Export Plug-In . SVG Version: 6.00 Build 0)  -->
<!DOCTYPE svg PUBLIC "-//W3C//DTD SVG 1.1//EN" "http://www.w3.org/Graphics/SVG/1.1/DTD/svg11.dtd">
<svg version="1.1" id="Layer_1" xmlns="http://www.w3.org/2000/svg" xmlns:xlink="http://www.w3.org/1999/xlink" x="0px" y="0px"
	 viewBox="0 0 64 64" enable-background="new 0 0 64 64" xml:space="preserve">
<polyline fill="#FFFFFF" stroke="#010101" stroke-width="3" stroke-miterlimit="10" points="218.8,-51.9 218.8,-25.5 175.7,-25.5 
	175.7,-77.3 207.7,-77.3 "/>
<polyline fill="none" stroke="#010101" stroke-width="4" stroke-miterlimit="10" points="184.9,-41.3 221.8,-78.2 227.8,-72.1 
	190.9,-35.2 "/>
<rect x="-76.4" y="-76.5" fill="#FFFFFF" stroke="#000000" stroke-width="3" stroke-miterlimit="10" width="48.5" height="48.5"/>
<rect x="-71.1" y="-71.4" fill="#FFFFFF" stroke="#000000" stroke-width="3" stroke-miterlimit="10" width="16" height="37.8"/>
<rect x="-49.7" y="-71.2" fill="#FFFFFF" stroke="#000000" stroke-width="3" stroke-miterlimit="10" width="16.2" height="16.2"/>
<rect x="-49.6" y="-49.8" fill="#FFFFFF" stroke="#000000" stroke-width="3" stroke-miterlimit="10" width="16.1" height="16.1"/>
<rect x="4.7" y="-65.3" transform="matrix(0.7071 -0.7071 0.7071 0.7071 46.329 7.1815)" fill="#FFFFFF" stroke="#000000" stroke-width="3" stroke-miterlimit="10" width="54.3" height="26"/>
<rect x="27.7" y="-61.9" transform="matrix(0.7071 -0.7071 0.7071 0.7071 46.5911 9.7308)" fill="none" width="14.7" height="21"/>
<text transform="matrix(0.7071 -0.7071 0.7071 0.7071 31.4533 -44.5471)" font-family="'MyriadPro-Bold'" font-size="18">$</text>
<path id="key-3-icon" fill="#FFFFFF" stroke="#010101" stroke-width="2" stroke-miterlimit="10" d="M113.1-45.9h-5.2l0,5.1l-5.4,0
	v4.8H90.3v-8.3l17.3-17.1c0.5,1.1,1.1,2.2,1.8,3.2L93.9-42.7v3.3h4.9v-4.8l5.4,0l0-5.1h7.3l3.4-3.4c1.1,0.7,2.2,1.2,3.5,1.6
	L113.1-45.9z M131.7-45.6l-3.4,3.9l3.9,3.4l-3.5,4.1l3.7,3.2l-7.8,9l-6.2-5.4l-1.7-24.1c1.2,0.4,2.3,0.6,3.5,0.8l1.6,21.6l2.5,2.2
	l3.2-3.7l-3.7-3.2l3.5-4.1l-3.9-3.4l4.7-5.4l-0.4-4.8c1.2-0.4,2.4-0.9,3.5-1.5L131.7-45.6z"/>
<polygon fill="none" stroke="#010101" stroke-width="4" stroke-miterlimit="10" points="182.8,-33.5 184.5,-39.1 188.6,-34.9 "/>
<line fill="none" stroke="#010101" stroke-width="4" stroke-miterlimit="10" x1="217.7" y1="-73.6" x2="223.2" y2="-68.1"/>
<g>
	<path fill="#FFFFFF" stroke="#010101" stroke-width="3" stroke-miterlimit="10" d="M-35.2,41.1c-1.2-4.7,1.6-9.6,6.4-10.8l-2.3-8.9
		c-1.5,0.4-3,0.4-4.6,0c-4.7-1.3-7.5-6.2-6.2-11L-50.7,8c-0.4,1.5-1.2,2.9-2.3,4c-3.5,3.4-9.1,3.4-12.6-0.1l-6.5,6.4
		c1.1,1.1,1.9,2.4,2.3,4c1.2,4.7-1.6,9.6-6.4,10.8l2.3,8.9c1.5-0.4,3-0.4,4.6,0c4.7,1.3,7.5,6.2,6.2,10.9l8.8,2.4
		c0.4-1.5,1.2-2.8,2.3-3.9c3.5-3.4,9.1-3.4,12.5,0.1L-33,45C-34,44-34.8,42.6-35.2,41.1z M-55.1,40.7c-5-1.4-8-6.6-6.6-11.6
		c1.4-5,6.6-8,11.6-6.6c5,1.4,8,6.6,6.6,11.6C-44.8,39.2-50,42.1-55.1,40.7z"/>
</g>
<rect x="7.7" y="7.3" fill="#FFFFFF" stroke="#010101" stroke-width="3" stroke-miterlimit="10" width="27.8" height="27.8"/>
<polygon fill="#010101" points="14.8,12.5 29.5,21.1 14.8,29.6 "/>
<g>
	<rect x="28.5" y="25.5" fill="#FFFFFF" stroke="#010101" stroke-width="3" stroke-miterlimit="10" width="27.8" height="27.8"/>
	<path id="picture-icon_1_" fill="#010101" d="M32.4,34.3c0-1.5,1.2-2.8,2.8-2.8c1.5,0,2.8,1.2,2.8,2.8c0,1.5-1.2,2.8-2.8,2.8
		C33.6,37.1,32.4,35.8,32.4,34.3z M45.6,34.4L41,40.9l-2.5-2.6l-7,8h21.9L45.6,34.4z"/>
</g>
<rect x="220.3" y="-75.5" transform="matrix(0.7071 -0.7071 0.7071 0.7071 116.9583 136.1123)" fill="#FFFFFF" width="4.9" height="4.7"/>
<circle fill="#FFFFFF" stroke="#010101" stroke-width="3" stroke-miterlimit="10" cx="124.3" cy="-68.3" r="14"/>
<circle fill="#010101" cx="128.9" cy="-71.1" r="3.2"/>
<ellipse transform="matrix(0.7071 0.7071 -0.7071 0.7071 -28.0147 -37.6508)" fill="none" stroke="#000000" stroke-width="3" stroke-miterlimit="10" cx="31.4" cy="-52.6" rx="12.1" ry="7.6"/>
</svg>
