<?xml version="1.0" encoding="utf-8"?>
<!-- Generator: Adobe Illustrator 17.1.0, SVG Export Plug-In . SVG Version: 6.00 Build 0)  -->
<!DOCTYPE svg PUBLIC "-//W3C//DTD SVG 1.1//EN" "http://www.w3.org/Graphics/SVG/1.1/DTD/svg11.dtd">
<svg version="1.1" id="Layer_1" xmlns="http://www.w3.org/2000/svg" xmlns:xlink="http://www.w3.org/1999/xlink" x="0px" y="0px"
	 viewBox="0 0 64 64" enable-background="new 0 0 64 64" xml:space="preserve">
<polyline fill="#FFFFFF" stroke="#010101" stroke-width="3" stroke-miterlimit="10" points="302.8,-51.9 302.8,-25.5 259.7,-25.5 
	259.7,-77.3 291.7,-77.3 "/>
<polyline fill="none" stroke="#010101" stroke-width="4" stroke-miterlimit="10" points="268.9,-41.3 305.8,-78.2 311.8,-72.1 
	274.9,-35.2 "/>
<rect x="7.6" y="-76.5" fill="#FFFFFF" stroke="#000000" stroke-width="3" stroke-miterlimit="10" width="48.5" height="48.5"/>
<rect x="12.9" y="-71.4" fill="#FFFFFF" stroke="#000000" stroke-width="3" stroke-miterlimit="10" width="16" height="37.8"/>
<rect x="34.3" y="-71.2" fill="#FFFFFF" stroke="#000000" stroke-width="3" stroke-miterlimit="10" width="16.2" height="16.2"/>
<rect x="34.4" y="-49.8" fill="#FFFFFF" stroke="#000000" stroke-width="3" stroke-miterlimit="10" width="16.1" height="16.1"/>
<rect x="88.7" y="-65.3" transform="matrix(0.7071 -0.7071 0.7071 0.7071 70.9321 66.5785)" fill="#FFFFFF" stroke="#000000" stroke-width="3" stroke-miterlimit="10" width="54.3" height="26"/>
<ellipse transform="matrix(0.7071 -0.7071 0.7071 0.7071 70.847 66.5837)" fill="none" stroke="#000000" stroke-width="3" stroke-miterlimit="10" cx="115.8" cy="-52.2" rx="7.1" ry="9.7"/>
<rect x="114.7" y="-61.9" transform="matrix(0.7071 -0.7071 0.7071 0.7071 72.0728 71.2491)" fill="none" width="14.7" height="21"/>
<text transform="matrix(0.7071 -0.7071 0.7071 0.7071 115.9432 -47.0572)" font-family="'MyriadPro-Bold'" font-size="13">$</text>
<path id="key-3-icon" fill="#FFFFFF" stroke="#010101" stroke-width="2" stroke-miterlimit="10" d="M197.1-45.9h-5.2l0,5.1l-5.4,0
	v4.8h-12.1v-8.3l17.3-17.1c0.5,1.1,1.1,2.2,1.8,3.2l-15.5,15.4v3.3h4.9v-4.8l5.4,0l0-5.1h7.3l3.4-3.4c1.1,0.7,2.2,1.2,3.5,1.6
	L197.1-45.9z M215.7-45.6l-3.4,3.9l3.9,3.4l-3.5,4.1l3.7,3.2l-7.8,9l-6.2-5.4l-1.7-24.1c1.2,0.4,2.3,0.6,3.5,0.8l1.6,21.6l2.5,2.2
	l3.2-3.7l-3.7-3.2l3.5-4.1l-3.9-3.4l4.7-5.4l-0.4-4.8c1.2-0.4,2.4-0.9,3.5-1.5L215.7-45.6z"/>
<polygon fill="none" stroke="#010101" stroke-width="4" stroke-miterlimit="10" points="266.8,-33.5 268.5,-39.1 272.6,-34.9 "/>
<line fill="none" stroke="#010101" stroke-width="4" stroke-miterlimit="10" x1="301.7" y1="-73.6" x2="307.2" y2="-68.1"/>
<g>
	<path fill="#FFFFFF" stroke="#010101" stroke-width="3" stroke-miterlimit="10" d="M48.8,41.1c-1.2-4.7,1.6-9.6,6.4-10.8l-2.3-8.9
		c-1.5,0.4-3,0.4-4.6,0c-4.7-1.3-7.5-6.2-6.2-11L33.3,8c-0.4,1.5-1.2,2.9-2.3,4c-3.5,3.4-9.1,3.4-12.6-0.1l-6.5,6.4
		c1.1,1.1,1.9,2.4,2.3,4c1.2,4.7-1.6,9.6-6.4,10.8l2.3,8.9c1.5-0.4,3-0.4,4.6,0c4.7,1.3,7.5,6.2,6.2,10.9l8.8,2.4
		c0.4-1.5,1.2-2.8,2.3-3.9c3.5-3.4,9.1-3.4,12.5,0.1L51,45C50,44,49.2,42.6,48.8,41.1z M28.9,40.7c-5-1.4-8-6.6-6.6-11.6
		c1.4-5,6.6-8,11.6-6.6c5,1.4,8,6.6,6.6,11.6C39.2,39.2,34,42.1,28.9,40.7z"/>
</g>
<rect x="91.7" y="7.3" fill="#FFFFFF" stroke="#010101" stroke-width="3" stroke-miterlimit="10" width="27.8" height="27.8"/>
<polygon fill="#010101" points="98.8,12.5 113.5,21.1 98.8,29.6 "/>
<g>
	<rect x="112.5" y="25.5" fill="#FFFFFF" stroke="#010101" stroke-width="3" stroke-miterlimit="10" width="27.8" height="27.8"/>
	<path id="picture-icon_1_" fill="#010101" d="M116.4,34.3c0-1.5,1.2-2.8,2.8-2.8c1.5,0,2.8,1.2,2.8,2.8c0,1.5-1.2,2.8-2.8,2.8
		C117.6,37.1,116.4,35.8,116.4,34.3z M129.6,34.4l-4.6,6.5l-2.5-2.6l-7,8h21.9L129.6,34.4z"/>
</g>
<rect x="304.3" y="-75.5" transform="matrix(0.7071 -0.7071 0.7071 0.7071 141.5613 195.5093)" fill="#FFFFFF" width="4.9" height="4.7"/>
<circle fill="#FFFFFF" stroke="#010101" stroke-width="3" stroke-miterlimit="10" cx="208.3" cy="-68.3" r="14"/>
<circle fill="#010101" cx="212.9" cy="-71.1" r="3.2"/>
</svg>
