<svg version="1.1" id="Layer_1" xmlns="http://www.w3.org/2000/svg" xmlns:xlink="http://www.w3.org/1999/xlink" x="0px" y="0px"
	 width="256px" height="256px" viewBox="128 128 256 256" enable-background="new 128 128 256 256" xml:space="preserve">
<path id="instagram-6-icon" d="M335.237,240.146h-17.935c1.306,5.073,2.077,10.372,2.077,15.85c0,35.011-28.376,63.386-63.38,63.386
	c-35.005,0-63.382-28.375-63.382-63.386c0-5.478,0.774-10.778,2.081-15.85h-17.935v87.159c0,4.371,3.548,7.916,7.93,7.916h142.61
	c4.383,0,7.932-3.545,7.932-7.916L335.237,240.146L335.237,240.146z M335.237,184.689c0-4.375-3.55-7.923-7.933-7.923h-23.763
	c-4.378,0-7.923,3.548-7.923,7.923v23.772c0,4.372,3.545,7.923,7.923,7.923h23.763c4.383,0,7.933-3.551,7.933-7.923V184.689z
	 M256,216.385c-21.882,0-39.617,17.731-39.617,39.611c0,21.878,17.736,39.62,39.617,39.62c21.879,0,39.618-17.742,39.618-39.62
	C295.618,234.115,277.879,216.385,256,216.385 M335.237,359H176.765C163.642,359,153,348.355,153,335.221V176.766
	C153,163.639,163.642,153,176.765,153h158.472c13.125,0,23.763,10.639,23.763,23.766v158.455C359,348.355,348.362,359,335.237,359"
	/>
</svg>