<?xml version="1.0" encoding="utf-8"?>
<!-- Generator: Adobe Illustrator 17.1.0, SVG Export Plug-In . SVG Version: 6.00 Build 0)  -->
<!DOCTYPE svg PUBLIC "-//W3C//DTD SVG 1.1//EN" "http://www.w3.org/Graphics/SVG/1.1/DTD/svg11.dtd">
<svg version="1.1" id="Layer_1" xmlns="http://www.w3.org/2000/svg" xmlns:xlink="http://www.w3.org/1999/xlink" x="0px" y="0px"
	 viewBox="0 0 64 64" enable-background="new 0 0 64 64" xml:space="preserve">
<polyline fill="#FFFFFF" stroke="#010101" stroke-width="3" stroke-miterlimit="10" points="218.8,32.1 218.8,58.5 175.7,58.5 
	175.7,6.7 207.7,6.7 "/>
<polyline fill="none" stroke="#010101" stroke-width="4" stroke-miterlimit="10" points="184.9,42.7 221.8,5.8 227.8,11.9 
	190.9,48.8 "/>
<rect x="-76.4" y="7.5" fill="#FFFFFF" stroke="#000000" stroke-width="3" stroke-miterlimit="10" width="48.5" height="48.5"/>
<rect x="-71.1" y="12.6" fill="#FFFFFF" stroke="#000000" stroke-width="3" stroke-miterlimit="10" width="16" height="37.8"/>
<rect x="-49.7" y="12.8" fill="#FFFFFF" stroke="#000000" stroke-width="3" stroke-miterlimit="10" width="16.2" height="16.2"/>
<rect x="-49.6" y="34.2" fill="#FFFFFF" stroke="#000000" stroke-width="3" stroke-miterlimit="10" width="16.1" height="16.1"/>
<rect x="5" y="17.1" transform="matrix(0.7071 -0.7071 0.7071 0.7071 -13.2233 32.1595)" fill="#FFFFFF" stroke="#000000" stroke-width="3" stroke-miterlimit="10" width="54.3" height="29.9"/>
<rect x="24.2" y="20.2" transform="matrix(0.7071 -0.7071 0.7071 0.7071 -12.9977 32.2041)" fill="none" width="16.4" height="23.1"/>
<text transform="matrix(0.7071 -0.7071 0.7071 0.7071 32.4745 43.4734)" font-family="'MyriadPro-Bold'" font-size="28">$</text>
<path id="key-3-icon" fill="#FFFFFF" stroke="#010101" stroke-width="2" stroke-miterlimit="10" d="M113.1,38.1h-5.2l0,5.1l-5.4,0
	v4.8H90.3v-8.3l17.3-17.1c0.5,1.1,1.1,2.2,1.8,3.2L93.9,41.3v3.3h4.9v-4.8l5.4,0l0-5.1h7.3l3.4-3.4c1.1,0.7,2.2,1.2,3.5,1.6
	L113.1,38.1z M131.7,38.4l-3.4,3.9l3.9,3.4l-3.5,4.1l3.7,3.2l-7.8,9l-6.2-5.4l-1.7-24.1c1.2,0.4,2.3,0.6,3.5,0.8l1.6,21.6l2.5,2.2
	l3.2-3.7l-3.7-3.2l3.5-4.1l-3.9-3.4l4.7-5.4l-0.4-4.8c1.2-0.4,2.4-0.9,3.5-1.5L131.7,38.4z"/>
<polygon fill="none" stroke="#010101" stroke-width="4" stroke-miterlimit="10" points="182.8,50.5 184.5,44.9 188.6,49.1 "/>
<line fill="none" stroke="#010101" stroke-width="4" stroke-miterlimit="10" x1="217.7" y1="10.4" x2="223.2" y2="15.9"/>
<g>
	<path fill="#FFFFFF" stroke="#010101" stroke-width="3" stroke-miterlimit="10" d="M-35.2,125.1c-1.2-4.7,1.6-9.6,6.4-10.8
		l-2.3-8.9c-1.5,0.4-3,0.4-4.6,0c-4.7-1.3-7.5-6.2-6.2-11l-8.8-2.4c-0.4,1.5-1.2,2.9-2.3,4c-3.5,3.4-9.1,3.4-12.6-0.1l-6.5,6.4
		c1.1,1.1,1.9,2.4,2.3,4c1.2,4.7-1.6,9.6-6.4,10.8l2.3,8.9c1.5-0.4,3-0.4,4.6,0c4.7,1.3,7.5,6.2,6.2,10.9l8.8,2.4
		c0.4-1.5,1.2-2.8,2.3-3.9c3.5-3.4,9.1-3.4,12.5,0.1l6.5-6.4C-34,128-34.8,126.6-35.2,125.1z M-55.1,124.7c-5-1.4-8-6.6-6.6-11.6
		c1.4-5,6.6-8,11.6-6.6c5,1.4,8,6.6,6.6,11.6C-44.8,123.2-50,126.1-55.1,124.7z"/>
</g>
<rect x="7.7" y="91.3" fill="#FFFFFF" stroke="#010101" stroke-width="3" stroke-miterlimit="10" width="27.8" height="27.8"/>
<polygon fill="#010101" points="14.8,96.5 29.5,105.1 14.8,113.6 "/>
<g>
	<rect x="28.5" y="109.5" fill="#FFFFFF" stroke="#010101" stroke-width="3" stroke-miterlimit="10" width="27.8" height="27.8"/>
	<path id="picture-icon_1_" fill="#010101" d="M32.4,118.3c0-1.5,1.2-2.8,2.8-2.8c1.5,0,2.8,1.2,2.8,2.8c0,1.5-1.2,2.8-2.8,2.8
		C33.6,121.1,32.4,119.8,32.4,118.3z M45.6,118.4l-4.6,6.5l-2.5-2.6l-7,8h21.9L45.6,118.4z"/>
</g>
<rect x="220.3" y="8.5" transform="matrix(0.7071 -0.7071 0.7071 0.7071 57.5613 160.7153)" fill="#FFFFFF" width="4.9" height="4.7"/>
<circle fill="#FFFFFF" stroke="#010101" stroke-width="3" stroke-miterlimit="10" cx="124.3" cy="15.7" r="14"/>
<circle fill="#010101" cx="128.9" cy="12.9" r="3.2"/>
<ellipse transform="matrix(0.7071 0.7071 -0.7071 0.7071 31.9209 -13.5638)" fill="none" stroke="#000000" stroke-width="3" stroke-miterlimit="10" cx="32.3" cy="31.8" rx="14.3" ry="9.7"/>
</svg>
