<?xml version="1.0" encoding="utf-8"?>
<!-- Generator: Adobe Illustrator 15.0.2, SVG Export Plug-In . SVG Version: 6.00 Build 0)  -->
<!DOCTYPE svg PUBLIC "-//W3C//DTD SVG 1.1//EN" "http://www.w3.org/Graphics/SVG/1.1/DTD/svg11.dtd">
<svg version="1.1" id="Kickstarter_logo" xmlns="http://www.w3.org/2000/svg" xmlns:xlink="http://www.w3.org/1999/xlink" x="0px"
	 y="0px" width="181.045px" height="21.507px" viewBox="0 0 181.045 21.507" enable-background="new 0 0 181.045 21.507"
	 xml:space="preserve">
<path id="Logo" fill="#D9D9DE" d="M6.495,7.202l3.666-5.312c0.693-1,1.588-1.5,2.685-1.5c0.895,0,1.669,0.318,2.324,0.952
	c0.654,0.636,0.981,1.396,0.981,2.281c0,0.654-0.173,1.231-0.52,1.732l-3.305,4.806l4.042,5.124c0.404,0.51,0.606,1.107,0.606,1.79
	c0,0.905-0.318,1.682-0.953,2.332c-0.635,0.649-1.405,0.974-2.31,0.974c-0.991,0-1.747-0.322-2.266-0.967l-4.951-6.177v3.406
	c0,0.972-0.168,1.727-0.505,2.266C5.375,19.89,4.479,20.38,3.305,20.38c-1.068,0-1.896-0.361-2.483-1.083
	C0.274,18.634,0,17.753,0,16.657V4.026c0-1.039,0.279-1.895,0.837-2.568C1.424,0.746,2.232,0.39,3.262,0.39
	c0.981,0,1.799,0.356,2.454,1.068c0.366,0.395,0.596,0.794,0.692,1.198c0.058,0.25,0.087,0.717,0.087,1.4V7.202z M24.704,4.417
	v12.225c0,1.059-0.274,1.929-0.823,2.613c-0.587,0.75-1.4,1.125-2.439,1.125c-0.953,0-1.756-0.351-2.41-1.053
	c-0.549-0.587-0.823-1.482-0.823-2.685V4.417c0-1.367,0.274-2.357,0.823-2.974c0.625-0.703,1.429-1.054,2.41-1.054
	s1.785,0.347,2.411,1.04C24.42,2.064,24.704,3.06,24.704,4.417z M36.392,0c2.396-0.01,4.599,0.794,6.61,2.41
	c1.578,1.271,2.367,2.584,2.367,3.94c0,1.155-0.481,2.05-1.443,2.685c-0.549,0.366-1.146,0.549-1.79,0.549
	c-0.529,0-1.035-0.125-1.515-0.375c-0.202-0.106-0.703-0.592-1.501-1.458c-0.741-0.809-1.669-1.213-2.786-1.213
	c-1.078,0-1.98,0.373-2.706,1.119c-0.727,0.746-1.09,1.658-1.09,2.736c0,1.068,0.363,1.975,1.09,2.721
	c0.726,0.746,1.624,1.118,2.691,1.118c0.885,0,1.708-0.298,2.468-0.895c0.472-0.452,0.938-0.904,1.4-1.357
	c0.5-0.433,1.135-0.65,1.905-0.65c0.885,0,1.653,0.311,2.302,0.932c0.649,0.62,0.974,1.374,0.974,2.259
	c0,1.203-0.707,2.42-2.122,3.651c-1.982,1.732-4.272,2.598-6.871,2.598c-1.607,0-3.123-0.342-4.546-1.025
	c-1.8-0.866-3.231-2.138-4.294-3.818c-1.064-1.678-1.595-3.514-1.595-5.506c0-2.982,1.106-5.523,3.32-7.621
	C31.215,0.952,33.592,0.02,36.392,0z M53.063,7.202l3.666-5.312c0.693-1,1.588-1.5,2.685-1.5c0.896,0,1.669,0.318,2.324,0.952
	c0.654,0.636,0.981,1.396,0.981,2.281c0,0.654-0.173,1.231-0.52,1.732l-3.305,4.806l4.041,5.124c0.404,0.51,0.607,1.107,0.607,1.79
	c0,0.905-0.318,1.682-0.953,2.332c-0.636,0.649-1.405,0.974-2.309,0.974c-0.992,0-1.747-0.322-2.267-0.967l-4.951-6.177v3.406
	c0,0.972-0.168,1.727-0.505,2.266c-0.616,0.981-1.511,1.472-2.685,1.472c-1.068,0-1.896-0.361-2.482-1.083
	c-0.548-0.664-0.823-1.544-0.823-2.641V4.026c0-1.039,0.279-1.895,0.837-2.568c0.587-0.712,1.395-1.068,2.425-1.068
	c0.981,0,1.799,0.356,2.454,1.068c0.365,0.395,0.597,0.794,0.693,1.198c0.058,0.25,0.086,0.717,0.086,1.4V7.202z M67.607,12.788
	c0.722,0,1.491,0.318,2.309,0.953c1.02,0.799,1.718,1.197,2.093,1.197c0.558,0,0.837-0.288,0.837-0.865
	c0-0.318-0.164-0.587-0.491-0.809c-0.173-0.116-1.146-0.485-2.916-1.112c-2.896-1.02-4.345-2.906-4.345-5.658
	c0-2.078,0.765-3.719,2.295-4.922C68.728,0.525,70.383,0,72.355,0c1.703,0,3.185,0.407,4.445,1.22
	c1.261,0.813,1.891,1.859,1.891,3.139c0,0.77-0.237,1.413-0.714,1.927c-0.476,0.515-1.095,0.772-1.855,0.772
	c-0.799,0-1.684-0.379-2.656-1.14c-0.606-0.471-1.063-0.707-1.371-0.707c-0.529,0-0.794,0.26-0.794,0.779
	c0,0.491,0.654,0.939,1.963,1.342c1.809,0.568,3.209,1.261,4.2,2.079c1.318,1.097,1.978,2.637,1.978,4.619
	c0,2.156-0.742,3.839-2.224,5.052c-1.375,1.125-3.166,1.688-5.369,1.688s-4.027-0.586-5.47-1.761
	c-1.154-0.933-1.731-2.024-1.731-3.276c0-0.837,0.283-1.535,0.851-2.093S66.77,12.798,67.607,12.788z M84.985,6.582h-1.718
	c-0.952,0-1.741-0.26-2.367-0.779c-0.664-0.558-0.996-1.304-0.996-2.237c0-0.558,0.156-1.095,0.469-1.61
	c0.312-0.514,0.717-0.88,1.212-1.097c0.496-0.217,1.672-0.325,3.529-0.325h6.553c1.606,0,2.646,0.096,3.118,0.289
	c0.52,0.212,0.94,0.575,1.263,1.089c0.323,0.516,0.484,1.057,0.484,1.624c0,0.895-0.356,1.675-1.068,2.339
	c-0.51,0.471-1.343,0.707-2.497,0.707H91.48v9.815c0,1.068-0.183,1.895-0.548,2.482c-0.617,0.982-1.506,1.473-2.67,1.473
	s-2.059-0.448-2.685-1.343c-0.395-0.558-0.592-1.404-0.592-2.54V6.582z M100.775,17.682c-0.308,0.731-0.625,1.274-0.952,1.63
	c-0.654,0.712-1.448,1.068-2.382,1.068c-1.145,0-2.035-0.461-2.67-1.386c-0.375-0.548-0.562-1.164-0.562-1.847
	c0-0.568,0.134-1.141,0.404-1.718l6.162-13.12c0.597-1.279,1.593-1.92,2.988-1.92c1.415,0,2.429,0.659,3.045,1.978l6.221,13.221
	c0.25,0.53,0.375,1.054,0.375,1.573c0,0.77-0.25,1.453-0.75,2.049c-0.654,0.78-1.492,1.169-2.512,1.169
	c-0.837,0-1.535-0.26-2.093-0.78c-0.414-0.384-0.828-1.024-1.241-1.919H100.775z M127.759,12.644l1.53,2.454
	c0.423,0.683,0.635,1.386,0.635,2.107c0,0.914-0.315,1.672-0.945,2.273c-0.63,0.602-1.402,0.902-2.316,0.902
	c-1.174,0-2.064-0.5-2.671-1.501l-2.714-4.445v2.671c0,0.914-0.3,1.688-0.901,2.323c-0.602,0.635-1.36,0.953-2.274,0.953
	c-1.116,0-1.962-0.399-2.54-1.198c-0.519-0.702-0.779-1.626-0.779-2.771V4.272c0-2.492,1.343-3.738,4.027-3.738h4.128
	c1.356,0,2.617,0.392,3.781,1.176c1.165,0.785,2.017,1.802,2.555,3.053c0.404,0.942,0.606,1.89,0.606,2.843
	C129.881,9.387,129.174,11.066,127.759,12.644z M135.478,6.582h-1.717c-0.953,0-1.742-0.26-2.367-0.779
	c-0.664-0.558-0.996-1.304-0.996-2.237c0-0.558,0.157-1.095,0.469-1.61c0.312-0.514,0.717-0.88,1.212-1.097
	c0.496-0.217,1.671-0.325,3.529-0.325h6.553c1.607,0,2.646,0.096,3.117,0.289c0.52,0.212,0.941,0.575,1.264,1.089
	c0.321,0.516,0.482,1.057,0.482,1.624c0,0.895-0.355,1.675-1.067,2.339c-0.51,0.471-1.342,0.707-2.497,0.707h-1.487v9.815
	c0,1.068-0.183,1.895-0.548,2.482c-0.616,0.982-1.506,1.473-2.67,1.473s-2.059-0.448-2.685-1.343
	c-0.395-0.558-0.591-1.404-0.591-2.54V6.582z M154.732,14.145h2.952c1.22,0,2.127,0.25,2.722,0.75
	c0.702,0.597,1.052,1.367,1.052,2.31c0,0.962-0.352,1.742-1.054,2.338c-0.548,0.462-1.448,0.693-2.698,0.693h-5.067
	c-1.193,0-2.011-0.091-2.454-0.274c-0.866-0.356-1.438-0.938-1.717-1.747c-0.173-0.52-0.259-1.371-0.259-2.555V4.951
	c0-0.896,0.029-1.496,0.086-1.805c0.105-0.625,0.361-1.154,0.765-1.587c0.461-0.491,1.049-0.804,1.761-0.939
	c0.337-0.057,1.02-0.086,2.05-0.086h3.883c1.059,0,1.674,0.01,1.847,0.029c0.693,0.067,1.26,0.27,1.703,0.606
	c0.789,0.597,1.184,1.376,1.184,2.338c0,1.039-0.346,1.833-1.037,2.382c-0.615,0.491-1.455,0.736-2.521,0.736h-3.198v1.342h2.548
	c0.747,0,1.367,0.197,1.856,0.592c0.518,0.423,0.777,1.005,0.777,1.746c0,1.568-0.955,2.353-2.864,2.353h-2.317V14.145z
	 M175.629,12.644l1.53,2.454c0.423,0.683,0.635,1.386,0.635,2.107c0,0.914-0.316,1.672-0.946,2.273
	c-0.63,0.602-1.402,0.902-2.316,0.902c-1.174,0-2.064-0.5-2.67-1.501l-2.714-4.445v2.671c0,0.914-0.301,1.688-0.902,2.323
	c-0.602,0.635-1.36,0.953-2.273,0.953c-1.117,0-1.963-0.399-2.541-1.198c-0.519-0.702-0.779-1.626-0.779-2.771V4.272
	c0-2.492,1.343-3.738,4.027-3.738h4.128c1.357,0,2.617,0.392,3.781,1.176c1.164,0.785,2.017,1.802,2.555,3.053
	c0.404,0.942,0.606,1.89,0.606,2.843C177.751,9.387,177.044,11.066,175.629,12.644z"/>
</svg>
