<?xml version="1.0" encoding="utf-8"?>
<!-- Generator: Adobe Illustrator 17.1.0, SVG Export Plug-In . SVG Version: 6.00 Build 0)  -->
<!DOCTYPE svg PUBLIC "-//W3C//DTD SVG 1.1//EN" "http://www.w3.org/Graphics/SVG/1.1/DTD/svg11.dtd">
<svg version="1.1" id="Layer_1" xmlns="http://www.w3.org/2000/svg" xmlns:xlink="http://www.w3.org/1999/xlink" x="0px" y="0px"
	 viewBox="-40.7 -45.7 76.8 69.2" enable-background="new -40.7 -45.7 76.8 69.2" xml:space="preserve">
<g>
	<polygon fill="#183056" points="12.4,34.5 6.5,31.3 6.4,31.3 6.3,31.3 0.3,34.5 0,34.7 0.3,34.9 6.3,38.1 6.4,38.1 6.5,38.1 
		12.4,34.9 12.8,34.7 	"/>
	<polygon fill="#FFFFFF" points="12.4,33.5 6.5,30.3 6.4,30.3 6.3,30.3 0.3,33.5 0,33.7 0.3,33.9 6.3,37.1 6.4,37.1 6.5,37.1 
		12.4,33.9 12.8,33.7 	"/>
	<polygon fill="#183056" points="12.4,32.5 6.5,29.3 6.4,29.3 6.3,29.3 0.3,32.5 0,32.7 0.3,32.9 6.3,36.1 6.4,36.1 6.5,36.1 
		12.4,32.9 12.8,32.7 	"/>
	<polygon fill="#FFFFFF" points="12.4,31.5 6.5,28.3 6.4,28.3 6.3,28.3 0.3,31.5 0,31.7 0.3,31.9 6.3,35.1 6.4,35.1 6.5,35.1 
		12.4,31.9 12.8,31.7 	"/>
	<polygon fill="#183056" points="12.4,30.5 6.5,27.3 6.4,27.3 6.3,27.3 0.3,30.5 0,30.7 0.3,30.9 6.3,34.1 6.4,34.1 6.5,34.1 
		12.4,30.9 12.8,30.7 	"/>
	<polygon fill="#FFFFFF" points="12.4,29.5 6.5,26.3 6.4,26.3 6.3,26.3 0.3,29.5 0,29.7 0.3,29.9 6.3,33.1 6.4,33.1 6.5,33.1 
		12.4,29.9 12.8,29.7 	"/>
	<path fill="#183056" d="M7.5,26.7l-1.6-0.8L0,29.1l1.3,0.7c1.6,0.8,4.6-1,4.6-1S5.7,31,7.7,31C8.4,31,9,30.6,9,30.6
		c1.7-0.9,2.5-2.3,2.8-3.4c-0.3,0.3-0.7,0.5-1.4,0.5C9.7,27.7,8.7,27.3,7.5,26.7z"/>
</g>
<polygon fill="#183056" points="28.2,0.5 -2.2,-15.8 -2.7,-16 -3.1,-15.8 -33.5,0.5 -35.3,1.5 -33.5,2.4 -3.1,18.8 -2.7,19 
	-2.2,18.8 28.2,2.4 29.9,1.5 "/>
<polygon fill="#FFFFFF" points="28.2,-4.5 -2.2,-20.9 -2.7,-21.1 -3.1,-20.9 -33.5,-4.5 -35.3,-3.6 -33.5,-2.7 -3.1,13.7 -2.7,13.9 
	-2.2,13.7 28.2,-2.7 29.9,-3.6 "/>
<polygon fill="#183056" points="28.2,-9.6 -2.2,-26 -2.7,-26.2 -3.1,-26 -33.5,-9.6 -35.3,-8.7 -33.5,-7.7 -3.1,8.6 -2.7,8.8 
	-2.2,8.6 28.2,-7.7 29.9,-8.7 "/>
<polygon fill="#FFFFFF" points="28.2,-14.7 -2.2,-31 -2.7,-31.3 -3.1,-31 -33.5,-14.7 -35.3,-13.7 -33.5,-12.8 -3.1,3.5 -2.6,3.8 
	-2.2,3.5 28.2,-12.9 29.9,-13.8 "/>
<polygon fill="#183056" points="28.2,-19.8 -2.2,-36.1 -2.7,-36.4 -3.1,-36.1 -33.5,-19.8 -35.3,-18.8 -33.5,-17.9 -3.1,-1.6 
	-2.7,-1.3 -2.2,-1.6 28.2,-17.9 29.9,-18.8 "/>
<polygon fill="#FFFFFF" points="28.2,-24.9 -2.2,-41.2 -2.7,-41.4 -3.1,-41.2 -33.5,-24.9 -35.3,-23.9 -33.5,-23 -3.1,-6.7 
	-2.7,-6.4 -2.2,-6.7 28.2,-23 29.9,-23.9 "/>
<path fill="#183056" d="M3.1-39.3l-7.9-4.3l-30.4,16.3l6.6,3.6C-20.3-19.7-5-29-5-29s-1,11.3,9.1,11.3c3.5,0,6.8-1.8,6.9-1.8
	c8.6-4.7,12.5-12,14.3-17.5c-1.5,1.4-3.7,2.5-7,2.5C14.2-34.4,9.1-36.1,3.1-39.3z"/>
</svg>
