<?xml version="1.0" encoding="utf-8"?>
<!-- Generator: Adobe Illustrator 17.1.0, SVG Export Plug-In . SVG Version: 6.00 Build 0)  -->
<!DOCTYPE svg PUBLIC "-//W3C//DTD SVG 1.1//EN" "http://www.w3.org/Graphics/SVG/1.1/DTD/svg11.dtd">
<svg version="1.1" id="Layer_1" xmlns="http://www.w3.org/2000/svg" xmlns:xlink="http://www.w3.org/1999/xlink" x="0px" y="0px"
	 viewBox="0 25 12.8 13.2" enable-background="new 0 25 12.8 13.2" xml:space="preserve">
<g>
	<g>
		<polygon fill="#183056" points="12.4,34.5 6.5,31.3 6.4,31.3 6.3,31.3 0.3,34.5 0,34.7 0.3,34.9 6.3,38.1 6.4,38.1 6.5,38.1 
			12.4,34.9 12.8,34.7 		"/>
		<polygon fill="#FFFFFF" points="12.4,33.5 6.5,30.3 6.4,30.3 6.3,30.3 0.3,33.5 0,33.7 0.3,33.9 6.3,37.1 6.4,37.1 6.5,37.1 
			12.4,33.9 12.8,33.7 		"/>
		<polygon fill="#183056" points="12.4,32.5 6.5,29.3 6.4,29.3 6.3,29.3 0.3,32.5 0,32.7 0.3,32.9 6.3,36.1 6.4,36.1 6.5,36.1 
			12.4,32.9 12.8,32.7 		"/>
		<polygon fill="#FFFFFF" points="12.4,31.5 6.5,28.3 6.4,28.3 6.3,28.3 0.3,31.5 0,31.7 0.3,31.9 6.3,35.1 6.4,35.1 6.5,35.1 
			12.4,31.9 12.8,31.7 		"/>
		<polygon fill="#183056" points="12.4,30.5 6.5,27.3 6.4,27.3 6.3,27.3 0.3,30.5 0,30.7 0.3,30.9 6.3,34.1 6.4,34.1 6.5,34.1 
			12.4,30.9 12.8,30.7 		"/>
		<polygon fill="#FFFFFF" points="12.4,29.5 6.5,26.3 6.4,26.3 6.3,26.3 0.3,29.5 0,29.7 0.3,29.9 6.3,33.1 6.4,33.1 6.5,33.1 
			12.4,29.9 12.8,29.7 		"/>
		<path fill="#183056" d="M7.5,26.7l-1.6-0.8L0,29.1l1.3,0.7c1.6,0.8,4.6-1,4.6-1S5.7,31,7.7,31C8.4,31,9,30.6,9,30.6
			c1.7-0.9,2.5-2.3,2.8-3.4c-0.3,0.3-0.7,0.5-1.4,0.5C9.7,27.7,8.7,27.3,7.5,26.7z"/>
	</g>
	<g>
		<path fill="#183056" d="M15.2,36v-7H18c1.4,0,2.2,1,2.2,2.1c0,1.1-0.8,2.1-2.2,2.1h-1.9V36C16.1,36,15.2,36,15.2,36z M19.3,31.1
			c0-0.8-0.6-1.3-1.4-1.3h-1.8v2.7h1.8C18.7,32.4,19.3,31.9,19.3,31.1z"/>
		<path fill="#183056" d="M25,36l-1.8-2.8h-1.4V36H21v-7h2.8c1.3,0,2.2,0.8,2.2,2.1c0,1.3-0.9,2-1.8,2l1.9,2.9C26.1,36,25,36,25,36z
			 M25.1,31.1c0-0.8-0.6-1.3-1.4-1.3h-1.8v2.7h1.8C24.5,32.4,25.1,31.9,25.1,31.1z"/>
		<path fill="#183056" d="M27.1,36v-7h4.6v0.8H28V32h3.6v0.8H28v2.4h3.7V36C31.7,36,27.1,36,27.1,36z"/>
		<path fill="#183056" d="M32.4,35l0.5-0.7c0.5,0.5,1.2,1,2.2,1c1.2,0,1.6-0.7,1.6-1.2c0-1.8-4.1-0.8-4.1-3.3c0-1.2,1-2,2.4-2
			c1.1,0,1.9,0.4,2.5,1L37,30.5c-0.5-0.6-1.3-0.8-2-0.8c-0.8,0-1.4,0.5-1.4,1.1c0,1.6,4.1,0.7,4.1,3.3c0,1-0.7,2.1-2.6,2.1
			C33.8,36.1,32.9,35.6,32.4,35z"/>
		<path fill="#183056" d="M38.2,35l0.5-0.7c0.5,0.5,1.2,1,2.2,1c1.2,0,1.6-0.7,1.6-1.2c0-1.8-4.1-0.8-4.1-3.3c0-1.2,1-2,2.4-2
			c1.1,0,1.9,0.4,2.5,1l-0.5,0.6c-0.5-0.6-1.3-0.8-2-0.8c-0.8,0-1.4,0.5-1.4,1.1c0,1.6,4.1,0.7,4.1,3.3c0,1-0.7,2.1-2.6,2.1
			C39.7,36.1,38.8,35.6,38.2,35z"/>
		<path fill="#7E7F7E" d="M44.5,36v-7h3.1c1.2,0,2,0.7,2,1.8c0,0.9-0.6,1.5-1.2,1.6c0.7,0.1,1.4,0.9,1.4,1.7c0,1.1-0.7,1.9-2,1.9
			L44.5,36L44.5,36z M48.7,30.9c0-0.6-0.4-1.1-1.2-1.1h-2.1V32h2.1C48.3,32,48.7,31.5,48.7,30.9z M48.8,34c0-0.6-0.4-1.2-1.3-1.2
			h-2.2v2.4h2.2C48.3,35.2,48.8,34.7,48.8,34z"/>
		<path fill="#7E7F7E" d="M50.5,32.5c0-2.1,1.4-3.6,3.5-3.6c2.1,0,3.5,1.6,3.5,3.6S56,36.1,54,36.1C51.9,36.1,50.5,34.5,50.5,32.5z
			 M56.5,32.5c0-1.6-1-2.8-2.6-2.8c-1.6,0-2.6,1.2-2.6,2.8c0,1.6,1,2.8,2.6,2.8C55.5,35.3,56.5,34.1,56.5,32.5z"/>
		<path fill="#7E7F7E" d="M63,36l-2.2-3l-2.2,3h-1.1l2.7-3.6L57.6,29h1.1l2.1,2.8l2.1-2.8h1.1l-2.6,3.4L64,36L63,36L63,36z"/>
	</g>
</g>
</svg>
