<?xml version="1.0" encoding="utf-8"?>
<!-- Generator: Adobe Illustrator 17.1.0, SVG Export Plug-In . SVG Version: 6.00 Build 0)  -->
<!DOCTYPE svg PUBLIC "-//W3C//DTD SVG 1.1//EN" "http://www.w3.org/Graphics/SVG/1.1/DTD/svg11.dtd">
<svg version="1.1" id="Layer_1" xmlns="http://www.w3.org/2000/svg" xmlns:xlink="http://www.w3.org/1999/xlink" x="0px" y="0px"
	 viewBox="0 0 362.25 69.3" enable-background="new 0 0 362.25 69.3" xml:space="preserve">
<g>
	<g>
		<polygon fill="#183056" points="70.263,48.86 36.589,30.768 36.103,30.507 35.618,30.768 1.943,48.86 0,49.904 1.943,50.948 
			35.618,69.039 36.103,69.3 36.589,69.039 70.263,50.948 72.206,49.904 		"/>
		<polygon fill="#FFFFFF" points="70.263,43.231 36.589,25.139 36.103,24.878 35.618,25.139 1.943,43.231 0,44.275 1.943,45.319 
			35.618,63.41 36.103,63.671 36.589,63.41 70.263,45.319 72.206,44.275 		"/>
		<polygon fill="#183056" points="70.263,37.602 36.589,19.51 36.103,19.249 35.618,19.51 1.943,37.602 0,38.646 1.943,39.69 
			35.618,57.781 36.103,58.042 36.589,57.781 70.263,39.69 72.206,38.646 		"/>
		<polygon fill="#FFFFFF" points="70.262,31.925 36.562,13.88 36.076,13.619 35.591,13.881 1.942,32.021 0,33.067 1.945,34.109 
			35.645,52.152 36.131,52.413 36.616,52.151 70.265,34.013 72.206,32.966 		"/>
		<polygon fill="#183056" points="70.263,26.344 36.589,8.251 36.103,7.99 35.618,8.251 1.943,26.344 0,27.387 1.943,28.432 
			35.618,46.523 36.103,46.784 36.589,46.523 70.263,28.432 72.206,27.387 		"/>
		<polygon fill="#FFFFFF" points="70.263,20.714 36.589,2.622 36.103,2.361 35.618,2.622 1.943,20.714 0,21.758 1.943,22.802 
			35.618,40.893 36.103,41.155 36.589,40.893 70.263,22.802 72.206,21.758 		"/>
		<path fill="#183056" d="M42.47,4.726L33.674,0L0,18.092l7.325,3.935C16.53,26.488,33.5,16.197,33.5,16.197
			s-1.095,12.56,10.076,12.56c3.879,0,7.567-1.959,7.604-1.977C60.757,21.539,65.064,13.49,67,7.37
			c-1.677,1.589-4.141,2.761-7.762,2.761C54.789,10.132,49.147,8.314,42.47,4.726z"/>
	</g>
	<g>
		<path fill="#183056" d="M86.079,57.103V17.471h15.924c7.962,0,12.418,5.467,12.418,11.943s-4.516,11.943-12.418,11.943H91.011
			v15.746H86.079z M109.311,29.414c0-4.457-3.208-7.546-7.902-7.546H91.011V36.96h10.398
			C106.103,36.96,109.311,33.87,109.311,29.414z"/>
		<path fill="#183056" d="M141.764,57.103l-10.042-15.746h-7.962v15.746h-4.932V17.471h15.924c7.249,0,12.478,4.635,12.478,11.943
			c0,7.13-4.932,11.052-10.338,11.527l10.695,16.162H141.764z M142.12,29.414c0-4.516-3.268-7.546-7.962-7.546H123.76V37.02h10.398
			C138.852,37.02,142.12,33.87,142.12,29.414z"/>
		<path fill="#183056" d="M153.456,57.103V17.471h25.966v4.397h-21.034v12.775h20.618v4.397h-20.618v13.666h21.034v4.397H153.456z"
			/>
		<path fill="#183056" d="M183.204,51.517l2.971-3.803c2.556,2.971,6.833,5.704,12.419,5.704c7.07,0,9.328-3.803,9.328-6.892
			c0-10.22-23.47-4.516-23.47-18.657c0-6.536,5.822-11.052,13.666-11.052c6.001,0,10.695,2.08,14.022,5.585l-2.971,3.625
			c-2.971-3.327-7.13-4.753-11.468-4.753c-4.694,0-8.141,2.555-8.141,6.298c0,8.913,23.471,3.803,23.471,18.598
			c0,5.704-3.922,11.646-14.617,11.646C191.582,57.815,186.471,55.201,183.204,51.517z"/>
		<path fill="#183056" d="M216.274,51.517l2.971-3.803c2.556,2.971,6.833,5.704,12.419,5.704c7.07,0,9.328-3.803,9.328-6.892
			c0-10.22-23.47-4.516-23.47-18.657c0-6.536,5.822-11.052,13.666-11.052c6.001,0,10.695,2.08,14.022,5.585l-2.971,3.625
			c-2.971-3.327-7.13-4.753-11.468-4.753c-4.694,0-8.141,2.555-8.141,6.298c0,8.913,23.471,3.803,23.471,18.598
			c0,5.704-3.922,11.646-14.617,11.646C224.652,57.815,219.542,55.201,216.274,51.517z"/>
		<path fill="#7E7F7E" d="M251.947,57.103V17.471h17.646c6.893,0,11.111,4.16,11.111,10.101c0,4.991-3.327,8.319-6.952,9.091
			c4.219,0.653,7.725,4.991,7.725,9.744c0,6.358-4.219,10.695-11.468,10.695H251.947z M275.596,28.285
			c0-3.565-2.377-6.417-6.833-6.417h-11.884v12.775h11.884C273.219,34.643,275.596,31.909,275.596,28.285z M276.368,45.873
			c0-3.625-2.496-6.833-7.309-6.833h-12.181v13.666h12.181C273.635,52.706,276.368,50.091,276.368,45.873z"/>
		<path fill="#7E7F7E" d="M285.777,37.316c0-11.705,7.962-20.499,19.667-20.499c11.706,0,19.727,8.794,19.727,20.499
			s-8.021,20.499-19.727,20.499C293.739,57.815,285.777,49.021,285.777,37.316z M320.062,37.316c0-9.269-5.764-16.102-14.617-16.102
			c-8.912,0-14.557,6.833-14.557,16.102c0,9.21,5.645,16.102,14.557,16.102C314.298,53.418,320.062,46.526,320.062,37.316z"/>
		<path fill="#7E7F7E" d="M356.347,57.103L343.69,40.228l-12.656,16.875h-6.001l15.448-20.321l-14.557-19.311h6.001l11.765,15.805
			l11.705-15.805h6.061l-14.557,19.251l15.448,20.38H356.347z"/>
	</g>
</g>
</svg>
